<svg version="1.1" viewBox="0.000000 0.000000 332.610000 342.000000" xmlns="http://www.w3.org/2000/svg" xmlns:xlink="http://www.w3.org/1999/xlink" id="f21cf791-d3b5-4ed9-99a8-7418a556a844" overflow="hidden"><g><path d=" M 307.470001 593.000000 C 323.442078 592.983521 336.376617 580.022217 336.360107 564.050110 C 336.360077 564.033386 336.360046 564.016663 336.360016 564.000000 L 336.359985 417.640015 C 336.360107 401.666626 323.443268 388.700592 307.469971 388.640015 L 160.550003 388.640015 C 144.572433 388.673096 131.646896 401.652313 131.679977 417.629883 C 131.679977 417.633270 131.679993 417.636658 131.679993 417.640015 L 131.679993 564.059998 C 131.630264 580.026489 144.533356 593.010193 160.499832 593.059875 C 160.516556 593.059937 160.533279 593.059937 160.550003 593.059998 Z" fill="#FFFFFF" transform="matrix(1.000000,0.000000,0.000000,1.000000,-131.680000,-251.020000)"/><path d=" M 441.329987 369.000000 C 453.997467 369.000092 464.280426 358.757385 464.329987 346.089996 L 464.329987 273.920013 C 464.274933 261.256531 453.993591 251.019897 441.329987 251.020020 L 369.399994 251.020004 C 356.736389 251.019882 346.455048 261.256531 346.399994 273.920013 L 346.399994 346.059998 C 346.449554 358.727386 356.732513 368.970093 369.399994 368.970001 Z" fill="#FFFFFF" transform="matrix(1.000000,0.000000,0.000000,1.000000,-131.680000,-251.020000)"/></g></svg>